<svg id="Layer_1" data-name="Layer 1" xmlns="http://www.w3.org/2000/svg" viewBox="0 0 80.14 64"><path d="M18.41,24.82,8.54,45.41a1.44,1.44,0,0,1-1.92.68l0,0-5.8-3a1.45,1.45,0,0,1-.62-1.94L10.46,20.8a1.43,1.43,0,0,1,1.93-.63h0l5.37,2.74A1.44,1.44,0,0,1,18.41,24.82Zm-.67,22.74a1.71,1.71,0,0,0-1.91.15,14.45,14.45,0,0,0-1.66,3c.15,1.29,1.47,2.34,2.63,3,.38-1.31.93-3.22,1.48-5a.86.86,0,0,0-.43-1.14ZM25.24,52s0,0,0-.05c.37-.6.69-1.4.11-1.79a2,2,0,0,0-2.54.55,55.64,55.64,0,0,0-3.51,5.24c.31.75.85,1.62,1.4,1.78s1-.24,1.37-.55c1.17-1.82,2.82-4.49,3.07-5.06l.07-.12ZM30,53.31a2,2,0,0,0-1.59-.4,1.09,1.09,0,0,0-.63.34c-.38.85-2.21,3.75-3.06,5.09a3.61,3.61,0,0,0,1.41,2,1.73,1.73,0,0,0,1.39.09l3.08-5.27A1.54,1.54,0,0,0,30,53.31Zm3.1,4.43-2.92,4c.45.77,1.26,1.87,2,1.55a5.69,5.69,0,0,0,2.71-3.08,2.39,2.39,0,0,0-.14-1.8,2.3,2.3,0,0,0-1.68-.65Zm21.3-18.08a95.81,95.81,0,0,1-13.59-6.23l-1.52,1a6.59,6.59,0,0,1-2.55,3.94,4,4,0,0,1-3.28.76A5,5,0,0,1,30,37a6.82,6.82,0,0,1-.24-5.21,10.46,10.46,0,0,1,4-6.6c-.77-.27-1.53-.05-2.74.63-2.4,1.36-6.74,4-6.78,4a1.44,1.44,0,0,1-1.46,0l-2.85-1.61L12,45l1.54,1A4.47,4.47,0,0,1,19,45a3.73,3.73,0,0,1,2.21,3.19A4.89,4.89,0,0,1,27,47.73,3.63,3.63,0,0,1,28.5,50a5,5,0,0,1,3.15.94,4.28,4.28,0,0,1,1.9,4,4.83,4.83,0,0,1,3.55,1.8,5,5,0,0,1,.63,4.12c.66.51,2,1.56,3.51,2.77a3.07,3.07,0,0,0,3,.06,2.31,2.31,0,0,0,1.24-1.34,3.56,3.56,0,0,1-.53-.41l-5.12-5.12a1.44,1.44,0,0,1,2-2L47,59.84a2.57,2.57,0,0,0,2.1.19,3.74,3.74,0,0,0,2.34-1.77c-2-1.84-6.71-6.51-6.91-6.72a1.44,1.44,0,0,1,2-2s5.11,5.11,7,6.78a2.82,2.82,0,0,0,2.59.17A4,4,0,0,0,58.4,54.4h0c-1.32-.89-7.16-6.61-8.31-7.75A1.44,1.44,0,1,1,52,44.49l.11.11c2.6,2.56,7,6.83,7.9,7.4a1.84,1.84,0,0,0,.38.17h0l0,0a3.41,3.41,0,0,0,3-.54,2,2,0,0,0,.21-2.89,2.23,2.23,0,0,0-.27-.26C61.88,46.84,55.77,41,54.42,39.66Zm.76-11a1.47,1.47,0,0,1-1,0c-.34-.13-8.38-3.22-10.52-4.19-1.28-.57-2.64-.52-5.77,1.5l-.62.4c-2.52,1.59-3.78,2.4-4.73,6.2-.49,1.95-.27,2.74-.09,3s.76.53,1.6.74a1.2,1.2,0,0,0,1-.29,3.69,3.69,0,0,0,1.46-2.57,1.44,1.44,0,0,1,.65-1.08L40,30.55a1.43,1.43,0,0,1,1.48-.06c.1.05,9.82,5.37,14.07,6.48a1.47,1.47,0,0,1,.63.36c.28.26,6.16,5.91,8.64,8.48l3-1.33L60.67,26.84ZM80,42.16,71.48,20.69a1.44,1.44,0,0,0-1.82-.82l-6.18,2.21a1.45,1.45,0,0,0-.88,1.84l0,0,8.7,21.58a1.45,1.45,0,0,0,1.85.8l6-2.31A1.44,1.44,0,0,0,80,42.18ZM40,11.27a1.44,1.44,0,0,0,1.45-1.44V1.44a1.45,1.45,0,0,0-2.89,0V9.83A1.44,1.44,0,0,0,40,11.27Zm-12.86,3.9A1.44,1.44,0,0,0,29,13L22.51,7.61a1.44,1.44,0,0,0-1.83,2.22ZM52,15.5a1.48,1.48,0,0,0,.92-.33l6.46-5.34a1.44,1.44,0,1,0-1.83-2.22L51.05,13A1.44,1.44,0,0,0,52,15.5Z"/></svg>