<svg id="Layer_1" data-name="Layer 1" xmlns="http://www.w3.org/2000/svg" xmlns:xlink="http://www.w3.org/1999/xlink" viewBox="0 0 16.8 12"><defs><style>.cls-1{fill:none;}.cls-2{clip-path:url(#clip-path);}.cls-3{fill:#949494;}.cls-4{clip-path:url(#clip-path-2);}.cls-5{clip-path:url(#clip-path-3);}</style><clipPath id="clip-path"><rect class="cls-1" x="3.6" y="2.4" width="9.6" height="9.6" rx="1.2"/></clipPath><clipPath id="clip-path-2"><path class="cls-1" d="M6.6,0A1.2,1.2,0,0,0,5.4,1.2V3.6h6V1.2A1.2,1.2,0,0,0,10.2,0Z"/></clipPath><clipPath id="clip-path-3"><path class="cls-1" d="M1.21,2.4A1.21,1.21,0,0,0,0,3.6v7.2A1.21,1.21,0,0,0,1.21,12H15.59a1.21,1.21,0,0,0,1.21-1.2V3.6a1.21,1.21,0,0,0-1.21-1.2Z"/></clipPath></defs><g class="cls-2"><path class="cls-3" d="M12,13.2H4.8a2.39,2.39,0,0,1-2.4-2.4V3.6A2.39,2.39,0,0,1,4.8,1.2H12a2.39,2.39,0,0,1,2.4,2.4v7.2A2.39,2.39,0,0,1,12,13.2ZM4.8,3.6v7.2H12V3.6Z"/></g><g class="cls-4"><path class="cls-3" d="M12.6,4.8H4.2V1.2A2.41,2.41,0,0,1,6.6-1.2h3.6a2.41,2.41,0,0,1,2.4,2.4Zm-6-2.4h3.6V1.2H6.6Z"/></g><g class="cls-5"><path class="cls-3" d="M15.59,13.2H1.21A2.4,2.4,0,0,1-1.2,10.8V3.6A2.4,2.4,0,0,1,1.21,1.2H15.59A2.4,2.4,0,0,1,18,3.6v7.2A2.4,2.4,0,0,1,15.59,13.2ZM1.2,3.6v7.2H15.59V3.6H1.2Z"/></g></svg>