<?xml version="1.0" encoding="utf-8"?>
<!-- Generator: Adobe Illustrator 23.0.1, SVG Export Plug-In . SVG Version: 6.00 Build 0)  -->
<svg version="1.1" id="Layer_1" xmlns="http://www.w3.org/2000/svg" xmlns:xlink="http://www.w3.org/1999/xlink" x="0px" y="0px"
	 viewBox="0 0 252 286" style="enable-background:new 0 0 252 286;" xml:space="preserve">
<style type="text/css">
	.st0{fill:#0500BE;}
	.st1{fill:url(#Flame_White_1_);}
</style>
<g>
	<path class="st0" d="M-1078.5,1286.9c15.2-0.8,30.3,1.9,44.9,7.5c6.2,2.4,8.2,1.2,9.4-5.6c1.4-8,1.9-16.2,3.8-24.1
		c7.9-33.1,32-44.7,62.8-42.6c18.4,1.3,33.6,9.3,47.1,21.2c2.6,2.3,3.8,4.7,3.3,8.2c-1.3,9.3-2.4,18.6-3.7,27.9
		c-0.9,6.7,1.2,8.6,7.9,8.1c19-1.6,37.3,0.1,53,12.2c3.9,3,7.1,1.1,10.4-0.7c20.1-10.7,41.6-14.8,64.1-14.5
		c11.7,0.2,23.3,1.6,34.5,5.8c24.1,9,36.2,29.3,32.6,54.9c-1.2,8.3-3,16.4-7.4,23.8c-4.9,8.2-11.7,12.9-21.6,12.6
		c-1.5,0-3,0-4.4,0.2c-3,0.6-5.8,1.7-6.3,5.2c-0.4,3.7,2.4,5,5.2,6.2c0.4,0.2,0.8,0.3,1.2,0.3c15.5,2.6,25.1,11.5,28.9,26.7
		c4.4,17.5,0.8,33.2-11.3,46.7c-12.4,13.8-28.8,19.6-46.5,22.6c-29,4.8-57.5,3.4-84.5-9.6c-3.8-1.8-6.7-0.8-10,0.8
		c-19.3,9.2-39.7,10.7-60.6,7.7c-3.5-0.5-7.1-1.5-10-3.4c-6-3.7-11.6-3.1-17.8-0.7c-16.6,6.4-33.9,6.7-51.3,3.9
		c-8.2-1.3-15.7-4.7-21.8-10.3c-3.7-3.4-6.8-3.5-11.2-1.3c-30.7,15.3-62.7,18.1-95.7,9.1c-33.2-9-55.8-37.8-58.5-72.2
		c-2-26.1,1.2-50.9,14.1-73.9c16.6-29.6,42.8-45.5,75.6-51.4C-1094.4,1286.9-1086.7,1286.7-1078.5,1286.9z M-958.8,1393.2
		c3.5,1.8,3.9,4.3,4.9,6.3c7.5,15.2,14.9,30.4,22.5,45.5c2.5,5,5.8,9.8,11.5,10.8c14.4,2.5,28.8,1.7,42.1-5.2
		c6.8-3.5,9.9-10.9,8.3-18.1c-1-4.6-2.9-7.4-8.7-6.3c-9.2,1.8-11.7,0.1-16.2-8c-4.6-8.2-9.1-16.5-13.7-24.7
		c-7.7-13.8-7.4-13.6,2.2-26.4c8.1-10.8,17-19,31.9-16.3c2.2,0.4,4-0.6,5.4-2.5c7.1-9.3,2.8-23.8-8.5-26.5
		c-17.7-4.3-33.8-2.9-46.1,13.2c-9.3,12.1-18.6,24.2-27.6,36.5c-1.3,1.7-2,4.2-4.7,4.7c-1-2.3-0.4-4.6-0.1-6.8
		c4.2-32.1,8.4-64.2,12.9-96.2c1.9-13.7,1.6-14.6-11.9-17.5c-0.2,0-0.4-0.1-0.6-0.2c-22.7-2.8-31.5,1.9-34.2,23.4
		c-3.9,30.6-8.1,61.2-12.1,91.9c-2.8,21.5-5.6,43.1-8.4,64.6c-1.7,12.6,3.6,19.4,16.1,21.2c7.1,1,14.1-0.4,21.2-0.7
		c3.9-0.2,5.9-2.5,6.3-6.4c0.9-7.7,2-15.3,3-23C-961.8,1415.7-960.4,1404.8-958.8,1393.2z M-1015.9,1378.8c0-3.8,0.2-7.5,0-11.3
		c-1.3-22.2-14.4-38.5-35.8-44.8c-6.3-1.8-12.7-2.8-19.1-3.2c-24.2-1.5-47,2.6-65.1,20c-20.5,19.6-25.6,44.8-22.5,72
		c2.8,24.6,17,39.8,40.8,44.5c9.5,1.9,19.1,2.2,28.7,1.5c17.9-1.3,34.6-6.1,48.5-18.1C-1022.1,1423.4-1015.6,1402.4-1015.9,1378.8z
		 M-783.3,1320.3c-4,0-7.9-0.2-11.9,0c-31.4,1.7-56.5,21.8-65.1,51.9c-4.2,14.7-4.7,29.7-2.2,44.7c3.8,22.3,16.9,35.5,39,39.2
		c12.8,2.2,25.7,2.2,38.7,0.6c7.5-0.9,14.9-2.5,21.6-6.1c9.9-5.4,13.9-15.3,10.5-24.7c-1.9-5.1-4.5-7.4-10.4-5.3
		c-10.5,3.9-21.4,5.7-32.6,5c-10.7-0.6-17.1-5.8-19.5-16.2c-2.1-8.9-2-17.9-0.4-26.8c4-22.3,15.5-31.7,37.9-31.8
		c7.5,0,15.1,0.2,22.4,2.1c4.6,1.2,7.1-0.7,9-4.6c4.3-9.1,0-20.2-9.7-24.6C-764.8,1320-774,1319.9-783.3,1320.3z"/>
	<path class="st0" d="M-1081.4,1349.7c12.8,0,20.1,6.1,22.1,18.4c1.9,11.9,0.9,23.7-2.7,35.2c-4.5,14.5-14.9,23.7-27.6,24.8
		c-12.8,1.1-21.4-4.6-23.4-17.2c-2.5-15.4-1.7-30.9,6-45.1C-1101.6,1355.6-1093.3,1349.8-1081.4,1349.7z"/>
</g>
<linearGradient id="Flame_White_1_" gradientUnits="userSpaceOnUse" x1="7.067" y1="143.11" x2="244.933" y2="143.11" gradientTransform="matrix(1 0 0 -1 0 286.11)">
	<stop  offset="0" style="stop-color:#FD267D"/>
	<stop  offset="1" style="stop-color:#FF7854"/>
</linearGradient>
<path id="Flame_White_2_" class="st1" d="M134.3,3.9c-1.1,0.1-1.9,1.2-1.8,2.3C139.7,50,131,97.9,78,116.6c-0.3,0-0.6-0.1-1-0.2
	c-9.4-12.4-11.8-33.6-12.5-42c-0.1-1.1-1-2-2.1-1.9c-0.3,0-0.8,0.1-1,0.3C33,89.4,6.7,128.1,7.1,165.5c0.5,64,44.9,117.3,120,116.6
	c64.6,0.5,117.3-51.4,117.9-116c0-1,0-1.9,0-2.8C244.2,81.9,186.4,28.3,135.3,4.1c-0.2-0.1-0.4-0.2-0.6-0.2L134.3,3.9z"/>
</svg>
