<svg id="Layer_1" data-name="Layer 1" xmlns="http://www.w3.org/2000/svg" viewBox="0 0 9.67 12"><defs><style>.cls-1{fill:#949494;}</style></defs><path class="cls-1" d="M5,12C3,12,.78,11.46.15,10.31s.87-2.79,2-3.7a4.65,4.65,0,0,1-.89-3.15,3.46,3.46,0,0,1,6.92,0A4.88,4.88,0,0,1,7.4,6.52c1.25,1,2.65,2.56,2.18,3.75C9,11.63,6.71,11.92,5.74,12ZM4.75.84A2.62,2.62,0,0,0,2.13,3.46c0,1.44.31,2.37,1,2.86a.39.39,0,0,1,.16.34A.4.4,0,0,1,3.06,7C1.63,8,.6,9.38.89,9.91c.44.82,2.59,1.37,4.8,1.23C7.33,11,8.56,10.58,8.8,10S8,7.9,6.53,6.92a.38.38,0,0,1-.18-.32.4.4,0,0,1,.14-.34,3.5,3.5,0,0,0,.88-2.8A2.62,2.62,0,0,0,4.75.84Z"/></svg>