<?xml version="1.0" encoding="utf-8"?>
<!-- Generator: Adobe Illustrator 25.2.3, SVG Export Plug-In . SVG Version: 6.00 Build 0)  -->
<svg version="1.1" id="Layer_1" xmlns="http://www.w3.org/2000/svg" xmlns:xlink="http://www.w3.org/1999/xlink" x="0px" y="0px"
	 viewBox="0 0 500 500" style="enable-background:new 0 0 500 500;" xml:space="preserve">
<style type="text/css">
	.st0{fill:url(#SVGID_1_);}
</style>
<g>
	<linearGradient id="SVGID_1_" gradientUnits="userSpaceOnUse" x1="4.8038" y1="249.9912" x2="495.201" y2="249.9912">
		<stop  offset="0" style="stop-color:#FD267D"/>
		<stop  offset="1" style="stop-color:#FF7854"/>
	</linearGradient>
	<path class="st0" d="M94.41,359.97c0-31.72,0-63.44,0-95.15c0-4.59-0.01-4.6-4.48-4.6c-23.46,0-46.91,0-70.37,0
		c-4.3,0-8.34-0.72-11.4-4.15c-4.71-5.29-4.48-12.79,0.8-17.86c8.09-7.77,16.28-15.42,24.48-23.08
		c11.02-10.3,22.09-20.54,33.12-30.84c21.61-20.17,43.22-40.34,64.81-60.53c25.84-24.16,51.66-48.34,77.51-72.49
		c10.57-9.88,21.18-19.72,31.81-29.55c6.04-5.59,12.56-5.65,18.53-0.1c14.93,13.88,29.81,27.82,44.72,41.72
		c26.24,24.47,52.51,48.92,78.74,73.4c13.79,12.87,27.51,25.8,41.29,38.68c19.59,18.3,39.21,36.57,58.81,54.86
		c2.83,2.64,5.6,5.35,8.42,8.01c4.03,3.8,4.85,8.52,3.2,13.48c-1.56,4.68-5.05,7.57-10.14,8.13c-1.62,0.18-3.25,0.3-4.87,0.3
		c-22.95,0.02-45.89,0.01-68.84,0.01c-4.93,0-4.93,0-4.93,5.07c0,63.13,0,126.26,0,189.39c0,12.17-5.6,20.77-16.64,25.82
		c-2.91,1.33-6.01,1.92-9.22,1.92c-26.82,0.01-53.65-0.04-80.47,0.08c-3.61,0.02-3.55-1.95-3.55-4.49
		c0.03-46.71,0.02-93.42,0.02-140.13c0-6.06,0-6.06-6.2-6.06c-26.62,0-53.24,0-79.86,0c-5.43,0-5.43,0-5.43,5.3
		c0,46.81,0,93.62,0,140.44c0,4.87-0.01,4.88-4.91,4.88c-25.9,0-51.81,0.03-77.71-0.02c-11.82-0.02-20.11-5.69-25.13-16.26
		c-1.79-3.77-2.1-7.84-2.1-11.95C94.41,422.8,94.41,391.39,94.41,359.97z"/>
</g>
</svg>
