<?xml version="1.0" encoding="utf-8"?>
<!-- Generator: Adobe Illustrator 24.2.3, SVG Export Plug-In . SVG Version: 6.00 Build 0)  -->
<svg version="1.1" id="Layer_1" xmlns="http://www.w3.org/2000/svg" xmlns:xlink="http://www.w3.org/1999/xlink" x="0px" y="0px"
	 viewBox="0 0 129.3 150.8" style="enable-background:new 0 0 129.3 150.8;" xml:space="preserve">
<style type="text/css">
	.st0{fill:#010101;}
</style>
<circle class="st0" cx="57.3" cy="9.1" r="9"/>
<path class="st0" d="M114.6,18.1c0-3.3-2.7-6-6-6H72.1c-1.7,8.2-9.6,13.4-17.8,11.8c-5.9-1.2-10.5-5.8-11.8-11.8H6c-3.3,0-6,2.7-6,6
	v111.6c0,3.3,2.7,6,6,6h58v0h23.3c-0.9-2.5-1.5-5.3-1.5-8.1c0-12.8,10.4-23.2,23.2-23.2c1.9,0,3.7,0.2,5.5,0.7V90.5h0V18.1z
	 M15.1,33.2h21.1c1.7,0,3,1.3,3,3s-1.3,3-3,3H15.1c-1.7,0-3-1.3-3-3S13.4,33.2,15.1,33.2z M15.1,48.3h75.4c1.7,0,3,1.3,3,3
	s-1.3,3-3,3H15.1c-1.7,0-3-1.3-3-3S13.4,48.3,15.1,48.3z M15.1,63.3h75.4c1.7,0,3,1.3,3,3s-1.3,3-3,3H15.1c-1.7,0-3-1.3-3-3
	S13.4,63.3,15.1,63.3z M15.1,78.4h75.4c1.7,0,3,1.3,3,3c0,1.7-1.3,3-3,3H15.1c-1.7,0-3-1.3-3-3C12.1,79.8,13.4,78.4,15.1,78.4z
	 M27.1,111.6H15.1c-1.7,0-3-1.3-3-3s1.3-3,3-3h12.1c1.7,0,3,1.3,3,3S28.8,111.6,27.1,111.6z"/>
<path class="st0" d="M109.1,107.4c-11.2,0-20.2,9-20.2,20.2c0,11.2,9,20.2,20.2,20.2c11.2,0,20.2-9,20.2-20.2
	C129.3,116.4,120.3,107.4,109.1,107.4z M121,123.8L105.8,135c-0.4,0.3-0.9,0.4-1.3,0.4c-0.6,0-1.2-0.2-1.6-0.7l-5.8-5.9
	c-0.9-0.9-0.9-2.3,0-3.2c0.9-0.9,2.3-0.9,3.2,0l4.5,4.5l13.7-10c1-0.7,2.4-0.5,3.2,0.5C122.2,121.7,122,123.1,121,123.8z"/>
</svg>
