<svg id="Layer_1" data-name="Layer 1" xmlns="http://www.w3.org/2000/svg" viewBox="0 0 61.51 64"><path d="M21.13,17,23,17.5a9.1,9.1,0,0,0,1,1.21,9.56,9.56,0,0,0,4.3,2.49v1.14a3.82,3.82,0,0,1-3.77,3.84h-.4a.6.6,0,0,0-.61.6v2.49a.61.61,0,0,0,.61.61H37.48a.61.61,0,0,0,.61-.61V26.78a.6.6,0,0,0-.61-.6h-.4a3.76,3.76,0,0,1-3.77-3.77V21.27a8.61,8.61,0,0,0,4.31-2.49c.34-.34.61-.74,1-1.22l1.88-.47a10.86,10.86,0,0,0,8-10.43v-2a1.28,1.28,0,0,0-1.28-1.28H41.72V1.28A1.27,1.27,0,0,0,40.45,0H21.13a1.28,1.28,0,0,0-1.28,1.28V3.43H14.33a1.27,1.27,0,0,0-1.27,1.28V6.6A10.77,10.77,0,0,0,21.13,17ZM41.59,6.73h3.5a7.51,7.51,0,0,1-4.58,6.73A24.13,24.13,0,0,0,41.59,6.73Zm-21.67,0A26.67,26.67,0,0,0,21,13.46a7.51,7.51,0,0,1-4.58-6.73Z"/><path d="M59.69,45.29H45.76V35.8A1.8,1.8,0,0,0,44,34H17.56a1.8,1.8,0,0,0-1.81,1.81v9.49H1.82A1.81,1.81,0,0,0,0,47.11V62.18A1.81,1.81,0,0,0,1.82,64H59.69a1.81,1.81,0,0,0,1.82-1.82V47.11A1.81,1.81,0,0,0,59.69,45.29ZM38.23,48.52,35.4,51.08a.64.64,0,0,0-.2.6l.74,3.77a1.06,1.06,0,0,1-1.55,1.15l-3.3-1.89a.51.51,0,0,0-.6,0l-3.3,1.89a1.05,1.05,0,0,1-1.55-1.15l.74-3.77a.53.53,0,0,0-.2-.6l-2.83-2.56A1.09,1.09,0,0,1,24,46.64l3.77-.41a.61.61,0,0,0,.53-.4l1.55-3.5a1.09,1.09,0,0,1,2,0l1.55,3.5a.69.69,0,0,0,.54.4l3.77.41A1.09,1.09,0,0,1,38.23,48.52Z"/></svg>