<svg id="Layer_1" data-name="Layer 1" xmlns="http://www.w3.org/2000/svg" viewBox="0 0 12 12"><path d="M11.71,8.81h-.59V1.61A1.62,1.62,0,0,0,9.52,0H1.41A1.41,1.41,0,0,0,0,1.41V2.5a.29.29,0,0,0,.29.29H2.18v7.6A1.62,1.62,0,0,0,3.77,12h6.62A1.61,1.61,0,0,0,12,10.38V9.1A.29.29,0,0,0,11.71,8.81ZM2.18,1.34V2.2H.59V1.41A.82.82,0,0,1,1.43.59.75.75,0,0,1,2.18,1.34ZM2.53.59h7a1,1,0,0,1,1,1v7.2H5.22a.29.29,0,0,0-.3.29v1.28a1,1,0,0,1-1,1H3.78a1,1,0,0,1-1-1v-9A1.34,1.34,0,0,0,2.53.59Zm7.86,10.82H5.14a1.64,1.64,0,0,0,.37-1v-1h5.9v1A1,1,0,0,1,10.39,11.41Z"/><path d="M3.66,3.07H9.51a.29.29,0,1,0,0-.58H3.66a.29.29,0,1,0,0,.58Z"/><path d="M3.66,4.54H7.17a.3.3,0,0,0,0-.59H3.66a.3.3,0,0,0,0,.59Z"/><path d="M3.66,6H8.34a.29.29,0,0,0,.29-.29.3.3,0,0,0-.29-.3H3.66a.3.3,0,0,0-.29.3A.29.29,0,0,0,3.66,6Z"/></svg>