<svg id="Layer_1" data-name="Layer 1" xmlns="http://www.w3.org/2000/svg" viewBox="0 0 9.52 12"><defs><style>.cls-1{fill:none;}.cls-2{fill:#949494;}</style></defs><path class="cls-1" d="M4.76,3.39H4.65A1.33,1.33,0,0,0,3.44,4.71a1.27,1.27,0,0,0,.38.94A1.33,1.33,0,0,0,4.76,6h0a1.33,1.33,0,1,0,0-2.65Z"/><path class="cls-1" d="M7.62,1.86A4,4,0,0,0,4.76.69a4,4,0,0,0-4,4c0,2.39,3.1,5.46,4,6.33.93-.87,4-4,4-6.32A4.07,4.07,0,0,0,7.62,1.86ZM4.76,6.72a2,2,0,1,1,2-2A2,2,0,0,1,4.76,6.72Z"/><path class="cls-2" d="M4.76,0A4.7,4.7,0,0,0,0,4.73C0,6.06.77,7.66,2.28,9.48a21.15,21.15,0,0,0,2.23,2.31l.25.21L5,11.77c.75-.68,4.49-4.21,4.49-7A4.7,4.7,0,0,0,4.76,0Zm0,11.06c-.92-.87-4-3.94-4-6.33a4,4,0,0,1,4-4A4,4,0,0,1,7.62,1.86,4.07,4.07,0,0,1,8.79,4.74C8.79,7.08,5.68,10.19,4.75,11.06Z"/><path class="cls-2" d="M5.54,2.86A2,2,0,1,0,6.77,4.72,2,2,0,0,0,5.54,2.86ZM4.76,6h0a1.33,1.33,0,0,1-.94-.39,1.27,1.27,0,0,1-.38-.94A1.33,1.33,0,0,1,4.65,3.39h.11A1.33,1.33,0,1,1,4.76,6Z"/></svg>