<svg id="Layer_1" data-name="Layer 1" xmlns="http://www.w3.org/2000/svg" viewBox="0 0 10.64 12"><defs><style>.cls-1{fill:none;}</style></defs><path class="cls-1" d="M.6,9.71l4,1.55v-9L.65.76A.28.28,0,0,0,.6.92Z"/><path class="cls-1" d="M6.89,9.61a.31.31,0,0,0,.32-.31V5.58H6.37a.3.3,0,0,1-.3-.3.29.29,0,0,1,.3-.3h.84V.92A.32.32,0,0,0,6.89.6h-5L5,1.81a.28.28,0,0,1,.19.28V9.61Z"/><path d="M10.45,4.8,9.18,3.54a.31.31,0,0,0-.42,0,.29.29,0,0,0-.09.21A.27.27,0,0,0,8.76,4l1,1h-2V.92A.92.92,0,0,0,6.89,0h-6A.91.91,0,0,0,.43.14h0l0,0A.93.93,0,0,0,0,.92v9a.3.3,0,0,0,.19.28L4.81,12l.11,0A.34.34,0,0,0,5.09,12a.31.31,0,0,0,.13-.25V10.21H6.89a.92.92,0,0,0,.92-.91V5.58h2l-1,1a.29.29,0,0,0-.09.21A.27.27,0,0,0,8.76,7a.29.29,0,0,0,.42,0l1.27-1.26a.69.69,0,0,0,0-1ZM4.62,2.29v9L.6,9.71V.92A.28.28,0,0,1,.65.76ZM5,1.81,1.91.6h5a.32.32,0,0,1,.32.32V5H6.37a.29.29,0,0,0-.3.3.3.3,0,0,0,.3.3h.84V9.3a.31.31,0,0,1-.32.31H5.22V2.09A.28.28,0,0,0,5,1.81Z"/></svg>