<svg id="Layer_1" data-name="Layer 1" xmlns="http://www.w3.org/2000/svg" xmlns:xlink="http://www.w3.org/1999/xlink" viewBox="0 0 19.35 24"><defs><style>.cls-1{fill:url(#linear-gradient);}.cls-2{fill:url(#linear-gradient-2);}</style><linearGradient id="linear-gradient" x1="2.25" y1="20.93" x2="17.1" y2="6.07" gradientUnits="userSpaceOnUse"><stop offset="0" stop-color="#fd267d"/><stop offset="1" stop-color="#ff7854"/></linearGradient><linearGradient id="linear-gradient-2" x1="7.63" y1="23.36" x2="11.72" y2="19.26" xlink:href="#linear-gradient"/></defs><path class="cls-1" d="M17.08,14.86V9.11a7.4,7.4,0,0,0-5.72-7.2,1.36,1.36,0,0,0,0-.2A1.71,1.71,0,0,0,8,1.71c0,.07,0,.13,0,.2a7.4,7.4,0,0,0-5.71,7.2v5.75L.07,18.25a.45.45,0,0,0,.38.69H18.9a.45.45,0,0,0,.38-.69Z"/><path class="cls-2" d="M9.67,24a3.4,3.4,0,0,0,3.4-3.39H6.28A3.39,3.39,0,0,0,9.67,24Z"/></svg>