<svg id="Layer_1" data-name="Layer 1" xmlns="http://www.w3.org/2000/svg" xmlns:xlink="http://www.w3.org/1999/xlink" viewBox="0 0 21.96 24"><defs><style>.cls-1{fill:url(#linear-gradient);}.cls-2{fill:url(#linear-gradient-2);}</style><linearGradient id="linear-gradient" x1="4.99" y1="26.04" x2="19.94" y2="11.09" gradientUnits="userSpaceOnUse"><stop offset="0" stop-color="#fd267d"/><stop offset="1" stop-color="#ff7854"/></linearGradient><linearGradient id="linear-gradient-2" x1="-1.77" y1="18.65" x2="13.46" y2="3.43" gradientTransform="translate(1.65 -2.37) rotate(13.28)" xlink:href="#linear-gradient"/></defs><path class="cls-1" d="M18.74,13.38a10.82,10.82,0,0,0-2.63-2,7.56,7.56,0,0,1-5.1,2h0a7.6,7.6,0,0,1-5.13-2A11,11,0,0,0,.5,17.85,10.71,10.71,0,0,0,0,21.14v2A.82.82,0,0,0,.82,24H21.14a.82.82,0,0,0,.82-.82v-2a10.89,10.89,0,0,0-3.22-7.76Z"/><circle class="cls-2" cx="10.98" cy="5.9" r="5.9" transform="translate(-1.06 2.68) rotate(-13.28)"/></svg>