<svg id="Layer_1" data-name="Layer 1" xmlns="http://www.w3.org/2000/svg" viewBox="0 0 10.38 12"><defs><style>.cls-1{fill:none;}</style></defs><path class="cls-1" d="M6,1.15A3.79,3.79,0,0,1,3.42,5.36l-.1,0A.52.52,0,0,1,3,5.32l-.08-.05,0-.07a3.15,3.15,0,0,1-.51-1.31,4.18,4.18,0,0,0-1.51,3A4.31,4.31,0,0,0,2,9.9a4.3,4.3,0,0,0,3.2,1.23h0A4.24,4.24,0,0,0,9.51,6.92v-.1A6.66,6.66,0,0,0,6,1.15Z"/><path d="M10.38,6.81A7.73,7.73,0,0,0,5.76.05l-.1,0h-.2A.52.52,0,0,0,5,.57v0c.22,1.33.11,3-1.59,3.81a3.9,3.9,0,0,1-.26-1.18.51.51,0,0,0-.54-.48.55.55,0,0,0-.25.07A5.07,5.07,0,0,0,0,6.9a5.23,5.23,0,0,0,1.4,3.61A5.13,5.13,0,0,0,5.17,12h.1a5.12,5.12,0,0,0,5.11-5.07ZM5.27,11.13h0A4.3,4.3,0,0,1,2,9.9a4.31,4.31,0,0,1-1.16-3,4.18,4.18,0,0,1,1.51-3A3.15,3.15,0,0,0,2.89,5.2l0,.07L3,5.32a.52.52,0,0,0,.3.06l.1,0A3.79,3.79,0,0,0,6,1.15,6.66,6.66,0,0,1,9.51,6.82v.1A4.24,4.24,0,0,1,5.27,11.13Z"/></svg>