<svg id="Layer_1" data-name="Layer 1" xmlns="http://www.w3.org/2000/svg" viewBox="0 0 74.67 64"><path d="M1.81,51.76l19.52,6.71V12a5.33,5.33,0,0,1,5.34-5.33H38.49L19.69.15a2.72,2.72,0,0,0-2,.11A2.61,2.61,0,0,0,16.3,1.79L.15,48.36a2.66,2.66,0,0,0,1.66,3.4Z"/><path d="M60,46.67a2.67,2.67,0,0,0-2.67,2.66V62.11L72.78,46.67Z"/><circle cx="49.33" cy="8" r="4"/><path d="M24,12V61.33A2.66,2.66,0,0,0,26.67,64h28V49.33A5.33,5.33,0,0,1,60,44H74.67V12A2.68,2.68,0,0,0,72,9.33H55.87a6.67,6.67,0,0,1-13.07,0H26.67A2.67,2.67,0,0,0,24,12Zm6.67,6.67H40a1.33,1.33,0,0,1,0,2.66H30.67a1.33,1.33,0,1,1,0-2.66Zm0,6.66H64A1.34,1.34,0,0,1,64,28H30.67a1.34,1.34,0,1,1,0-2.67Zm0,6.67H64a1.34,1.34,0,0,1,0,2.67H30.67a1.34,1.34,0,1,1,0-2.67Zm0,6.67H64a1.33,1.33,0,0,1,0,2.66H30.67a1.33,1.33,0,1,1,0-2.66Zm0,12H36a1.33,1.33,0,0,1,0,2.66H30.67a1.33,1.33,0,1,1,0-2.66Z"/></svg>