<?xml version="1.0" encoding="utf-8"?>
<!-- Generator: Adobe Illustrator 24.2.3, SVG Export Plug-In . SVG Version: 6.00 Build 0)  -->
<svg version="1.1" id="Layer_1" xmlns="http://www.w3.org/2000/svg" xmlns:xlink="http://www.w3.org/1999/xlink" x="0px" y="0px"
	 viewBox="0 0 530 149.9" style="enable-background:new 0 0 530 149.9;" xml:space="preserve">
<style type="text/css">
	.st0{fill:#FFFFFF;}
	.st1{fill:#FF008E;}
</style>
<g>
	<g>
		<path class="st0" d="M23.2,18.7H0V0h67.7v18.7H44.5v58.5H23.2V18.7z"/>
		<path class="st0" d="M77.5,0H99v77.2H77.5V0z"/>
		<path class="st0" d="M113.1,0h20l31.8,40.8V0h21.1v77.2h-18.7l-33.1-42.3v42.3H113V0H113.1z"/>
		<path class="st0" d="M284.1,0h62v18.1h-40.9v11.7h37.1v16.8h-37.1V59h41.4v18.2H284V0H284.1z"/>
		<path class="st0" d="M410.2,50.2c4.8-2.1,8.7-5,11.5-8.9c2.9-3.9,4.3-8.8,4.3-14.7v-0.2c0-7.5-2.3-13.5-6.8-17.9
			c-2.6-2.6-5.9-4.7-10-6.2C405.1,0.7,400.1,0,394,0h-36.5v77.2H379V53.8h9.1h0.2l15.5,23.4h24.7L410.2,50.2z M404.6,27.9
			c0,2.8-1,5-3,6.6c-2,1.6-4.8,2.5-8.5,2.5h-14V18.5h14c3.6,0,6.4,0.7,8.5,2.3c2.1,1.5,3.1,3.8,3.1,6.9v0.1H404.6z"/>
		<path class="st0" d="M270.1,22.8c-1.9-4.7-4.8-8.7-8.5-12c-3.7-3.4-8.2-6-13.6-7.9C242.5,0.9,236.3,0,229.4,0h-29.8v77.2H229
			c6.9,0,13.1-1,18.5-2.9c5.5-1.9,10.1-4.6,13.8-8.1c3.7-3.4,6.6-7.5,8.6-12.3c2-4.7,3-9.9,3-15.4v-0.3
			C273,32.6,272,27.5,270.1,22.8z M234,57.6c-11.4,0-18-8.1-18-17.8c0-5.7,4-11.5,8.3-14c0.2-0.1,0.5,0,0.5,0.2
			c0.1,1.3,0.4,4.5,1.9,6.4h0.1c8.1-2.8,9.4-10,8.4-16.7c0-0.2,0.1-0.3,0.3-0.3l0,0h0.1c7.7,3.7,16.4,11.9,16.4,24.4
			C252.1,49.1,244.6,57.6,234,57.6z"/>
		<path class="st1" d="M494.3,77.3c-5.4,0-10.3-0.7-14.6-2.1c-4.3-1.4-8-3.5-11-6.3c-3-2.8-5.4-6.5-7-10.8
			c-1.6-4.4-2.4-9.5-2.4-15.4V0h21.5v42.2c0,5.5,1.3,9.5,3.8,12.2c2.5,2.6,5.9,3.9,10.1,3.9c4.2,0,7.6-1.3,10.1-3.8
			s3.8-6.5,3.8-11.8V0H530v42.1c0,6.1-0.8,11.4-2.5,15.8c-1.7,4.4-4.1,8.1-7.1,10.9c-3.1,2.8-6.8,5-11.1,6.3
			C504.6,76.6,499.7,77.3,494.3,77.3z"/>
	</g>
	<g>
		<rect x="212.2" y="105" class="st0" width="291.7" height="31.8"/>
		<g>
			<path class="st1" d="M467.2,113.5h-5.6v5.9h5.6c1.9,0,3.5-1.1,3.5-2.9C470.6,114.6,469.1,113.5,467.2,113.5z"/>
			<path class="st1" d="M415.2,113.5h-5.6v5.9h5.6c1.9,0,3.5-1,3.5-3C418.5,114.6,417,113.5,415.2,113.5z"/>
			<polygon class="st1" points="251.4,124.9 258.4,124.9 254.9,114.4 			"/>
			<path class="st1" d="M321.2,113.5h-5.6v5.9h5.6c1.9,0,3.5-1.1,3.5-2.9C324.7,114.6,323.2,113.5,321.2,113.5z"/>
			<path class="st1" d="M528.5,129.3c-2.2-0.9-4.6-1.5-7.6-2.4c1.5-1.9,2.8-3.6,4.2-5.1c1.6-1.7,0.8-2.5-0.9-2.9
				c-4.8-0.8-6.5-1.6-11.3-2.4c-1.2-0.2-2.4-0.4-3.5-0.5c0.7-2.9-0.7-4,3.2-4.1c1.8,0,4,0.5,5.2-0.4c2.8-2.1,4-4.5,5.9-7.5
				c2.2-3.2,1.4-4.8,4.9-7.4c0.1-0.1-0.5-1.5-1-1.8c-0.7-0.3-1.7-0.1-2.5-0.1c-28.4-0.3-56.7,3.3-85,2.8c-7.4-0.2-14.7-1.1-22.1-1.8
				c-9.9-0.9-19.8-0.6-29.8-1.5c-5.8-0.5-11.6-0.7-17.3-0.8c-10-0.3-20-0.5-30-0.5c-8.1,0-16.2,0.3-24.3,0.5
				c-10.3,0.3-20.7,0.6-30.9,1.2c-10.7,0.6-21.4,1.5-32,2.3c-10.1,0.8-20.3,0.2-30.4,1.3c-1.9,0.2-9.7,0.9-11.6,1.5
				c-1.3,0.5-2.3,0.5-3.7,0.8c-4.2,1-6.9,0.5-9.3,3.9c-1.2,1.6-2.2,3.6-3.9,4.5c-2.7,1.5-4.3,3.6-5.7,6.2c-1.9,3.5-1.5,5.2,1.5,6.6
				c-0.6,4.1-0.9,3.5,4.2,4.9c-2,4.7-7.1,7.4-8.9,12.7c4.8,0,8.9,0,13.6,0c-1.4,2.3-2.6,1.1-3.5,3.1c-0.4,0.8-0.5,2.7-0.1,2.9
				c2.1,1.1,4.2,2.4,6.6,2.5c5.4,0.5,10.9,0.5,16.3,0.7c3.8,0.2,7.5,0.5,11.3,0.5c14.3-0.1,28.5-0.4,42.8-0.5c7.9-0.1,15.7,0,23.5,0
				c37.5-0.2,74.9-0.4,112.4-0.5c8.1,0,16.2,0.4,24.4,0.5c9.3,0.2,18.4,0.4,27.7,0.5c1.5,0,3.2-0.5,4.7-0.4c7.2,0.3,14.3,0.6,21.5,1
				c1.5,0.1,2.6-0.2,3.5-1.7c1-1.7,2.5-2.4,4.7-2.4c7.9,0,15.7-0.2,23.5-0.5c0.8,0,1.9-0.5,2.5-1.2c1.9-2.2,3.4-1.5,5.2-3.5
				c2.3-2.5,2.5-5.8,3.2-8.9C530,130.8,529.2,129.5,528.5,129.3z M228,135.6c-8.6,0-15-5.9-15-14.3c0-8.6,6.5-14.3,15-14.3
				c6.7,0,10.3,3.8,12.1,7.4l-6.2,2.9c-0.9-2.2-3.3-4-5.9-4c-4.5,0-7.7,3.5-7.7,8c0,4.5,3.2,8,7.7,8c2.7,0,5-1.9,5.9-4l6.2,2.9
				C238.3,131.7,234.7,135.6,228,135.6z M261.7,135.1l-1.4-4h-10.9l-1.4,4h-8.1l10.5-27.8h9l10.5,27.8H261.7z M303.4,135.1h-7.2
				v-18.4l-7,18.4h-3.2l-7-18.4v18.4h-7.2v-27.8h9.9l5.9,15.3l5.8-15.3h9.9L303.4,135.1L303.4,135.1z M322.3,125.8h-6.7v9.3h-7.2
				v-27.8h13.9c6.2,0,9.6,4.2,9.6,9.3C332,121.6,328.6,125.8,322.3,125.8z M361.4,123.8c0,6.9-4.2,11.8-13.1,11.8
				c-8.9,0-13.2-4.9-13.2-11.7v-16.5h7.3v16.3c0,3.3,2,5.6,5.9,5.6c3.9,0,5.9-2.4,5.9-5.6v-16.3h7.2V123.8z M376.8,135.6
				c-5.6,0-9.6-1.8-12.3-4.4l3.8-5.6c2,2,5.1,3.7,8.9,3.7c2.4,0,3.9-0.8,3.9-2.2c0-3.7-15.7-0.6-15.7-11.3c0-4.6,3.9-8.8,11-8.8
				c4.5,0,8.3,1.3,11.3,3.9l-3.9,5.4c-2.3-1.9-5.4-2.9-8.1-2.9c-2.1,0-3,0.7-3,1.9c0,3.4,15.7,0.8,15.7,11.2
				C388.3,131.9,384.2,135.6,376.8,135.6z M417.8,135.1l-4.6-9.3h-3.7v9.3h-7.2v-27.8h13.9c6.2,0,9.6,4.1,9.6,9.3
				c0,4.9-2.9,7.4-5.6,8.3l5.6,10.2H417.8z M450.2,113.5H437v4.3h12.9v6.2H437v4.7h13.2v6.2h-20.4v-27.8h20.4V113.5z M468.3,125.8
				h-6.7v9.3h-7.2v-27.8h13.9c6.2,0,9.6,4.2,9.6,9.3C477.9,121.6,474.5,125.8,468.3,125.8z M491.4,135.6c-5.6,0-9.6-1.8-12.3-4.4
				l3.8-5.6c2,2,5.1,3.7,8.9,3.7c2.4,0,3.9-0.8,3.9-2.2c0-3.7-15.7-0.6-15.7-11.3c0-4.6,3.9-8.8,11-8.8c4.5,0,8.3,1.3,11.3,3.9
				l-3.9,5.4c-2.3-1.9-5.4-2.9-8.1-2.9c-2.1,0-3,0.7-3,1.9c0,3.4,15.7,0.8,15.7,11.2C503,131.9,498.9,135.6,491.4,135.6z"/>
		</g>
	</g>
</g>
</svg>
