<svg id="Layer_1" data-name="Layer 1" xmlns="http://www.w3.org/2000/svg" viewBox="0 0 14.77 12"><path d="M4.64,12a8.56,8.56,0,0,0,8.62-8.62c0-.13,0-.26,0-.39a6.13,6.13,0,0,0,1.52-1.57A6.41,6.41,0,0,1,13,1.9,3.09,3.09,0,0,0,14.36.22,6.18,6.18,0,0,1,12.43,1,3,3,0,0,0,7.19,3a3.1,3.1,0,0,0,.08.69A8.57,8.57,0,0,1,1,.55,3,3,0,0,0,.62,2.08,3,3,0,0,0,2,4.6,3.06,3.06,0,0,1,.59,4.22v0A3,3,0,0,0,3,7.23a3,3,0,0,1-.8.11,2.6,2.6,0,0,1-.56-.06,3,3,0,0,0,2.83,2.1,6.06,6.06,0,0,1-3.77,1.3,5.79,5.79,0,0,1-.72,0A8.56,8.56,0,0,0,4.64,12"/></svg>