<svg id="Layer_1" data-name="Layer 1" xmlns="http://www.w3.org/2000/svg" xmlns:xlink="http://www.w3.org/1999/xlink" viewBox="0 0 33 24.28"><defs><style>.cls-1{fill:url(#linear-gradient);}.cls-2{fill:url(#linear-gradient-2);}.cls-3{fill:url(#linear-gradient-3);}.cls-4{fill:url(#linear-gradient-4);}.cls-5{fill:url(#linear-gradient-5);}.cls-6{fill:url(#linear-gradient-6);}</style><linearGradient id="linear-gradient" x1="5.17" y1="32.3" x2="24.55" y2="12.92" gradientUnits="userSpaceOnUse"><stop offset="0" stop-color="#fd267d"/><stop offset="1" stop-color="#ff7854"/></linearGradient><linearGradient id="linear-gradient-2" x1="-2.49" y1="22.5" x2="18.19" y2="1.82" xlink:href="#linear-gradient"/><linearGradient id="linear-gradient-3" x1="-4.59" y1="18.14" x2="15.89" y2="-2.34" xlink:href="#linear-gradient"/><linearGradient id="linear-gradient-4" x1="6.22" y1="36.88" x2="27.18" y2="15.92" xlink:href="#linear-gradient"/><linearGradient id="linear-gradient-5" x1="-1.06" y1="29.82" x2="21.37" y2="7.39" xlink:href="#linear-gradient"/><linearGradient id="linear-gradient-6" x1="0.07" y1="25.59" x2="20.55" y2="5.12" gradientTransform="translate(2.55 -3.54) rotate(13.28)" xlink:href="#linear-gradient"/></defs><path class="cls-1" d="M23,15.41a9.37,9.37,0,0,0-2.2-1.63,6.34,6.34,0,0,1-4.26,1.69h0a6.34,6.34,0,0,1-4.29-1.7,9.18,9.18,0,0,0-4.89,8.12v1.7a.69.69,0,0,0,.69.69H25a.68.68,0,0,0,.68-.69v-1.7A9.15,9.15,0,0,0,23,15.41Z"/><path class="cls-2" d="M11.3,12.7a6.12,6.12,0,0,1-.8-1.62,5.32,5.32,0,0,1-1.33.15A6.3,6.3,0,0,1,4.89,9.55,9.17,9.17,0,0,0,0,17.65v1.7A.69.69,0,0,0,.69,20H6.12a10,10,0,0,1,.31-1.31A10.52,10.52,0,0,1,11.3,12.7Z"/><path class="cls-3" d="M9.17,9.86a4.66,4.66,0,0,0,1.06-.12,5.3,5.3,0,0,1,0-.57,6.28,6.28,0,0,1,.7-2.91l.35-.57a6.19,6.19,0,0,1,2.62-2.25,4.93,4.93,0,1,0-4.7,6.42Z"/><path class="cls-4" d="M30.31,11.16a9.06,9.06,0,0,0-2.2-1.62,6.24,6.24,0,0,1-4.28,1.69,5.51,5.51,0,0,1-1.34-.15,6.27,6.27,0,0,1-.79,1.65A10.06,10.06,0,0,1,24,14.44a10.56,10.56,0,0,1,2.61,4.29,11.69,11.69,0,0,1,.31,1.3h5.44a.69.69,0,0,0,.69-.68v-1.7A9.15,9.15,0,0,0,30.31,11.16Z"/><path class="cls-5" d="M21.85,5.86,22,6.1l.05.07v0a6.14,6.14,0,0,1,.75,3,5.3,5.3,0,0,1,0,.57,4.66,4.66,0,0,0,1.06.12,4.93,4.93,0,1,0-4.7-6.41A6.34,6.34,0,0,1,21.85,5.86Z"/><circle class="cls-6" cx="16.5" cy="9.17" r="4.93" transform="translate(-1.67 4.04) rotate(-13.28)"/></svg>