<?xml version="1.0" encoding="utf-8"?>
<!-- Generator: Adobe Illustrator 23.0.1, SVG Export Plug-In . SVG Version: 6.00 Build 0)  -->
<svg version="1.1" id="Layer_1" xmlns="http://www.w3.org/2000/svg" xmlns:xlink="http://www.w3.org/1999/xlink" x="0px" y="0px"
	 viewBox="0 0 150 150" style="enable-background:new 0 0 150 150;" xml:space="preserve">
<style type="text/css">
	.st0{fill:url(#SVGID_1_);}
</style>
<linearGradient id="SVGID_1_" gradientUnits="userSpaceOnUse" x1="7.1749" y1="75" x2="142.8251" y2="75">
	<stop  offset="0" style="stop-color:#FD267D"/>
	<stop  offset="1" style="stop-color:#FF7854"/>
</linearGradient>
<path class="st0" d="M64,149c-9-0.9-17.7-2.8-25.9-6.8c-11.6-5.7-19.8-14.6-25-26.5c-3-7-4.7-14.3-5.4-21.9
	c-0.4-4.2-0.6-8.4-0.6-12.6c0-25.9,0-51.8,0-77.7c0-0.8,0-1.7,0-2.5C21.1,1,35,1,48.8,1c0,26.8,0,53.5,0,80.3c0,1.3,0,2.6,0.1,3.9
	c0.2,4.1,0.8,8,2.2,11.9c2.7,7.5,8,12.3,15.6,14.5c4.8,1.4,9.8,1.4,14.7,0.5c9.2-1.7,15.6-6.9,18.4-16.1c1.3-4.1,1.7-8.3,1.7-12.6
	c0-27.5,0-55,0-82.5c13.8,0,27.5,0,41.3,0c0,29.9,0,59.7,0,89.6c-0.4,1.6-0.3,3.3-0.5,5c-1.1,8.3-3.3,16.2-7.2,23.7
	c-4.4,8.5-10.7,15.3-18.8,20.3c-9.4,5.8-19.9,8.3-30.8,9.4"/>
</svg>
